<svg width="350" height="350" viewBox="0 0 350 350" fill="none" xmlns="http://www.w3.org/2000/svg">
<path d="M0 24C0 10.7452 10.7452 0 24 0H326C339.255 0 350 10.7452 350 24V326C350 339.255 339.255 350 326 350H24C10.7452 350 0 339.255 0 326V24Z" fill="#DCE0E5"/>
<path d="M55 124.736C55 103.895 71.6316 87 92.1478 87H132.778V226.15C132.778 246.991 116.147 263.885 95.6304 263.885H92.1478C71.6316 263.885 55 246.991 55 226.15V124.736Z" fill="#622EDC"/>
<path d="M217.222 143.603C217.222 126.021 217.222 117.229 220.049 110.295C223.82 101.049 231.051 93.7024 240.154 89.8724C246.98 87 255.635 87 272.943 87H295V193.721C295 195.363 295 196.184 294.975 196.879C294.259 216.629 278.662 232.472 259.219 233.2C258.536 233.225 257.728 233.225 256.111 233.225C254.494 233.225 253.686 233.225 253.002 233.2C233.559 232.472 217.963 216.629 217.247 196.879C217.222 196.184 217.222 195.363 217.222 193.721V143.603Z" fill="#1B263B"/>
<path d="M136.111 143.603C136.111 126.021 136.111 117.229 138.939 110.295C142.709 101.049 149.941 93.7024 159.043 89.8724C165.87 87 174.524 87 191.833 87H213.889V224.381C213.889 226.023 213.889 226.844 213.864 227.539C213.148 247.289 197.551 263.132 178.109 263.86C177.425 263.885 176.617 263.885 175 263.885C173.383 263.885 172.575 263.885 171.891 263.86C152.449 263.132 136.852 247.289 136.136 227.539C136.111 226.844 136.111 226.023 136.111 224.381V143.603Z" fill="#F58B00"/>
</svg>

