<svg width="415" height="121" viewBox="0 0 415 121" fill="none" xmlns="http://www.w3.org/2000/svg">
<path d="M5 28.4919C5 15.5177 15.3539 5 28.1261 5H53.4202V91.6265C53.4202 104.601 43.0663 115.118 30.2941 115.118H28.1261C15.3539 115.118 5 104.601 5 91.6265V28.4919Z" fill="#1B263B"/>
<path d="M105.99 40.2379C105.99 29.292 105.99 23.8191 107.75 19.502C110.097 13.7458 114.599 9.17251 120.266 6.78822C124.516 5 129.904 5 140.679 5H154.41V71.4381C154.41 72.4606 154.41 72.9718 154.394 73.404C153.949 85.6994 144.239 95.5625 132.135 96.0153C131.71 96.0313 131.206 96.0313 130.2 96.0313C129.193 96.0313 128.69 96.0313 128.265 96.0153C116.161 95.5625 106.451 85.6994 106.005 73.404C105.99 72.9718 105.99 72.4606 105.99 71.4381V40.2379Z" fill="#1B263B"/>
<path d="M55.4949 40.2379C55.4949 29.292 55.4949 23.8191 57.2553 19.502C59.6024 13.7458 64.1045 9.17251 69.771 6.78822C74.0209 5 79.4086 5 90.184 5H103.915V90.5253C103.915 91.5478 103.915 92.059 103.899 92.4912C103.454 104.787 93.7442 114.65 81.6403 115.103C81.2148 115.118 80.7115 115.118 79.705 115.118C78.6985 115.118 78.1952 115.118 77.7698 115.103C65.6658 114.65 55.9564 104.787 55.5106 92.4912C55.4949 92.059 55.4949 91.5478 55.4949 90.5253V40.2379Z" fill="#1B263B"/>
<path d="M188.106 78.944C190.602 78.944 192.746 78.592 194.538 77.888C196.394 77.184 198.25 76.032 200.106 74.432L209.61 84.416C204.682 90.048 197.322 92.864 187.53 92.864C181.45 92.864 176.106 91.712 171.498 89.408C166.89 87.104 163.306 83.904 160.746 79.808C158.25 75.712 157.002 71.072 157.002 65.888C157.002 60.768 158.25 56.192 160.746 52.16C163.242 48.064 166.666 44.864 171.018 42.56C175.434 40.256 180.362 39.104 185.802 39.104C190.858 39.104 195.466 40.16 199.626 42.272C203.85 44.32 207.21 47.36 209.706 51.392C212.202 55.36 213.45 60.096 213.45 65.6L176.298 72.704C178.282 76.864 182.218 78.944 188.106 78.944ZM185.898 52.064C182.762 52.064 180.202 53.056 178.218 55.04C176.234 56.96 175.114 59.744 174.858 63.392L195.978 59.264C195.338 57.088 194.122 55.36 192.33 54.08C190.538 52.736 188.394 52.064 185.898 52.064ZM249.988 39.104C256.452 39.104 261.636 41.024 265.54 44.864C269.508 48.704 271.492 54.496 271.492 62.24V92H253.252V65.216C253.252 58.112 250.404 54.56 244.708 54.56C241.572 54.56 239.044 55.584 237.124 57.632C235.268 59.68 234.34 62.752 234.34 66.848V92H216.1V39.968H233.476V45.632C235.524 43.52 237.956 41.92 240.772 40.832C243.588 39.68 246.66 39.104 249.988 39.104ZM296.096 92.864C291.744 92.864 287.456 92.384 283.231 91.424C279.007 90.4 275.615 89.088 273.055 87.488L278.527 75.008C280.895 76.48 283.711 77.664 286.975 78.56C290.24 79.392 293.472 79.808 296.671 79.808C299.615 79.808 301.696 79.52 302.912 78.944C304.192 78.304 304.832 77.408 304.832 76.256C304.832 75.104 304.064 74.304 302.528 73.856C301.056 73.344 298.688 72.864 295.424 72.416C291.264 71.904 287.711 71.232 284.767 70.4C281.887 69.568 279.391 68.032 277.279 65.792C275.167 63.552 274.111 60.416 274.111 56.384C274.111 53.056 275.103 50.112 277.087 47.552C279.071 44.928 281.951 42.88 285.727 41.408C289.568 39.872 294.144 39.104 299.456 39.104C303.232 39.104 306.976 39.488 310.688 40.256C314.4 41.024 317.504 42.112 320 43.52L314.528 55.904C309.92 53.344 304.928 52.064 299.551 52.064C296.672 52.064 294.56 52.416 293.216 53.12C291.872 53.76 291.2 54.624 291.2 55.712C291.2 56.928 291.936 57.792 293.407 58.304C294.88 58.752 297.312 59.232 300.704 59.744C304.992 60.384 308.544 61.12 311.36 61.952C314.176 62.784 316.608 64.32 318.656 66.56C320.768 68.736 321.824 71.808 321.824 75.776C321.824 79.04 320.832 81.984 318.848 84.608C316.864 87.168 313.92 89.184 310.016 90.656C306.176 92.128 301.536 92.864 296.096 92.864ZM357.812 39.104C364.276 39.104 369.46 41.024 373.364 44.864C377.332 48.704 379.316 54.496 379.316 62.24V92H361.076V65.216C361.076 58.112 358.228 54.56 352.532 54.56C349.396 54.56 346.868 55.584 344.948 57.632C343.092 59.68 342.164 62.752 342.164 66.848V92H323.924V20.768H342.164V44.768C344.148 42.912 346.484 41.504 349.172 40.544C351.86 39.584 354.74 39.104 357.812 39.104ZM385.007 39.968H403.247V92H385.007V39.968ZM394.127 34.208C390.799 34.208 388.111 33.28 386.063 31.424C384.015 29.568 382.991 27.264 382.991 24.512C382.991 21.76 384.015 19.456 386.063 17.6C388.111 15.744 390.799 14.816 394.127 14.816C397.455 14.816 400.143 15.712 402.191 17.504C404.239 19.232 405.263 21.472 405.263 24.224C405.263 27.104 404.239 29.504 402.191 31.424C400.143 33.28 397.455 34.208 394.127 34.208Z" fill="#1B263B"/>
</svg>
