<svg width="250" height="187" fill="none" xmlns="http://www.w3.org/2000/svg">
    <path d="M5 42.736C5 21.895 21.632 5 42.148 5h40.63v139.15c0 20.841-16.631 37.735-37.148 37.735h-3.482C21.632 181.885 5 164.991 5 144.15V42.735Z" fill="#622EDC"/>
    <path d="M85.778 61.603c0-17.582 0-26.373 2.828-33.308 3.77-9.247 11.002-16.593 20.104-20.423C115.537 5 124.191 5 141.5 5h22.057v137.381c0 1.642 0 2.463-.026 3.158-.716 19.75-16.312 35.593-35.755 36.321-.683.025-1.492.025-3.109.025-1.616 0-2.425 0-3.108-.025-19.443-.728-35.04-16.571-35.756-36.321-.025-.695-.025-1.516-.025-3.158V61.603Z" fill="#F58B00"/>
    <path d="M166.556 61.603c0-17.582 0-26.373 2.828-33.308 3.77-9.247 11.002-16.593 20.104-20.423C196.315 5 204.97 5 222.278 5h22.057v106.721c0 1.642 0 2.463-.025 3.158-.717 19.75-16.313 35.593-35.756 36.321-.683.025-1.492.025-3.108.025-1.617 0-2.426 0-3.109-.025-19.443-.728-35.039-16.571-35.755-36.321-.026-.695-.026-1.516-.026-3.158V61.603Z" fill="#DCE0E5"/>
</svg>
