<svg width="160" height="121" viewBox="0 0 160 121" fill="none" xmlns="http://www.w3.org/2000/svg">
<path d="M5 28.4919C5 15.5177 15.3539 5 28.1261 5H53.4202V91.6265C53.4202 104.601 43.0663 115.118 30.2941 115.118H28.1261C15.3539 115.118 5 104.601 5 91.6265V28.4919Z" fill="#1B263B"/>
<path d="M55.4202 40.2379C55.4202 29.292 55.4202 23.8191 57.1806 19.502C59.5277 13.7458 64.0298 9.17251 69.6963 6.78822C73.9462 5 79.3339 5 90.1093 5H103.84V90.5253C103.84 91.5478 103.84 92.059 103.825 92.4912C103.379 104.787 93.6695 114.65 81.5655 115.103C81.1401 115.118 80.6368 115.118 79.6303 115.118C78.6238 115.118 78.1205 115.118 77.6951 115.103C65.5911 114.65 55.8817 104.787 55.4359 92.4912C55.4202 92.059 55.4202 91.5478 55.4202 90.5253V40.2379Z" fill="#1B263B"/>
<path d="M105.84 40.2379C105.84 29.292 105.84 23.8191 107.601 19.502C109.948 13.7458 114.45 9.17251 120.116 6.78822C124.366 5 129.754 5 140.529 5H154.261V71.4381C154.261 72.4606 154.261 72.9718 154.245 73.404C153.799 85.6994 144.09 95.5625 131.986 96.0153C131.56 96.0313 131.057 96.0313 130.05 96.0313C129.044 96.0313 128.541 96.0313 128.115 96.0153C116.011 95.5625 106.302 85.6994 105.856 73.404C105.84 72.9718 105.84 72.4606 105.84 71.4381V40.2379Z" fill="#1B263B"/>
</svg>
